<?xml version="1.0" encoding="utf-8"?>
<!-- Generator: Adobe Illustrator 16.0.0, SVG Export Plug-In . SVG Version: 6.00 Build 0)  -->
<!DOCTYPE svg PUBLIC "-//W3C//DTD SVG 1.1//EN" "http://www.w3.org/Graphics/SVG/1.1/DTD/svg11.dtd">
<svg version="1.1" id="Layer_1" xmlns="http://www.w3.org/2000/svg" xmlns:xlink="http://www.w3.org/1999/xlink" x="0px" y="0px"
	 width="100px" height="100px" viewBox="0 0 100 100" enable-background="new 0 0 100 100" xml:space="preserve">
<g>
	<g>
		<path id="Chevron_Right" fill="#1E201D" d="M8.354,52.731l34.4,34.389c1.509,1.505,3.955,1.505,5.469,0
			c1.509-1.506,1.509-3.952,0-5.458L16.55,50.001l31.668-31.66c1.51-1.505,1.51-3.951,0-5.46c-1.509-1.506-3.959-1.506-5.468,0
			L8.35,47.27C6.863,48.759,6.863,51.245,8.354,52.731z"/>
	</g>
	<g>
		<path id="Chevron_Right_1_" fill="#1E201D" d="M51.765,52.731L86.164,87.12c1.51,1.505,3.955,1.505,5.469,0
			c1.51-1.506,1.51-3.952,0-5.458L59.961,50.001l31.668-31.66c1.51-1.505,1.51-3.951,0-5.46c-1.51-1.506-3.959-1.506-5.469,0
			L51.761,47.27C50.274,48.759,50.274,51.245,51.765,52.731z"/>
	</g>
</g>
</svg>
