<?xml version="1.0" encoding="utf-8"?>
<!-- Generator: Adobe Illustrator 16.0.0, SVG Export Plug-In . SVG Version: 6.00 Build 0)  -->
<!DOCTYPE svg PUBLIC "-//W3C//DTD SVG 1.1//EN" "http://www.w3.org/Graphics/SVG/1.1/DTD/svg11.dtd">
<svg version="1.1" id="Layer_1" xmlns="http://www.w3.org/2000/svg" xmlns:xlink="http://www.w3.org/1999/xlink" x="0px" y="0px"
	 width="110px" height="110px" viewBox="0 0 110 110" enable-background="new 0 0 110 110" xml:space="preserve">
<g>
	<path fill="#FFFFFF" d="M48.722,52.821c0,0,6.159-0.459,6.159-7.683c0-7.227-5.038-10.753-11.423-10.753H22.448v40.379h21.011
		c0,0,12.822,0.404,12.822-11.921C56.28,62.843,56.841,52.821,48.722,52.821z M31.707,41.562h11.752c0,0,2.854,0,2.854,4.203
		c0,4.198-1.68,4.806-3.582,4.811H31.707V41.562z M42.916,67.587H31.707v-10.79h11.752c0,0,4.255-0.054,4.255,5.545
		C47.713,67.014,44.6,67.538,42.916,67.587z"/>
	<rect x="64.702" y="36.764" fill="#FFFFFF" width="16.662" height="4.971"/>
	<path fill="#FFFFFF" d="M73.387,44.658c-15.527,0-15.51,15.514-15.51,15.514s-1.066,15.432,15.514,15.432
		c0,0,13.815,0.793,13.815-10.736h-7.104c0,0,0.234,4.343-6.475,4.343c0,0-7.106,0.476-7.106-7.024h20.922
		C87.442,62.186,89.731,44.658,73.387,44.658z M66.441,56.797c0,0,0.866-6.227,7.105-6.227c6.238,0,6.159,6.227,6.159,6.227H66.441z
		"/>
</g>
</svg>
