<?xml version="1.0" encoding="utf-8"?>
<!-- Generator: Adobe Illustrator 16.0.0, SVG Export Plug-In . SVG Version: 6.00 Build 0)  -->
<!DOCTYPE svg PUBLIC "-//W3C//DTD SVG 1.1//EN" "http://www.w3.org/Graphics/SVG/1.1/DTD/svg11.dtd">
<svg version="1.1" id="Layer_1" xmlns="http://www.w3.org/2000/svg" xmlns:xlink="http://www.w3.org/1999/xlink" x="0px" y="0px"
	 width="110px" height="110px" viewBox="0 0 110 110" enable-background="new 0 0 110 110" xml:space="preserve">
<g>
	<g>
		<path fill="#FFFFFF" d="M54.999,21.555c-18.465,0-33.487,15.005-33.487,33.447c0,18.441,15.022,33.443,33.487,33.443
			c18.466,0,33.489-15.002,33.489-33.443C88.488,36.56,73.465,21.555,54.999,21.555L54.999,21.555z M77.033,37.341
			c3.821,4.733,6.143,10.713,6.25,17.229c-1.271-0.261-6.654-1.265-13.088-1.265c-2.074,0-4.26,0.104-6.449,0.375
			c-0.186-0.449-0.37-0.898-0.564-1.35c-0.568-1.336-1.18-2.662-1.814-3.968C71.268,44.283,76.045,38.622,77.033,37.341
			L77.033,37.341z M54.999,26.791c7.135,0,13.657,2.65,18.64,7.018c-0.788,1.076-5.066,6.422-14.611,10.029
			c-4.419-8.077-9.256-14.767-10.406-16.319C50.672,27.043,52.807,26.791,54.999,26.791L54.999,26.791z M42.846,29.532
			c0.976,1.344,5.819,8.104,10.353,16.116c-12.164,3.197-22.965,3.406-25.572,3.406h-0.277
			C29.222,40.423,35.053,33.25,42.846,29.532L42.846,29.532z M26.707,55.045c0-0.232,0.004-0.465,0.011-0.697
			c0.169,0.002,0.419,0.002,0.743,0.002c3.511,0,15.698-0.29,28.257-4.017c0.763,1.491,1.488,3.004,2.162,4.517
			c-0.316,0.09-0.63,0.182-0.94,0.283C42.799,59.7,35.026,71.791,33.83,73.768C29.4,68.773,26.707,62.22,26.707,55.045
			L26.707,55.045z M54.999,83.299c-6.489,0-12.478-2.199-17.256-5.883c0.809-1.584,6.675-12.148,22.171-17.54
			c0.01-0.004,0.021-0.008,0.031-0.011c3.885,10.117,5.531,18.607,5.982,21.238C62.565,82.518,58.872,83.299,54.999,83.299
			L54.999,83.299z M71.023,78.318c-0.379-2.178-1.904-10.135-5.422-19.84c1.973-0.307,3.893-0.428,5.693-0.428
			c5.914,0,10.539,1.295,11.613,1.623C81.631,67.381,77.219,74.049,71.023,78.318L71.023,78.318z M71.023,78.318"/>
	</g>
</g>
</svg>
