<?xml version="1.0" encoding="utf-8"?>
<!-- Generator: Adobe Illustrator 16.0.0, SVG Export Plug-In . SVG Version: 6.00 Build 0)  -->
<!DOCTYPE svg PUBLIC "-//W3C//DTD SVG 1.1//EN" "http://www.w3.org/Graphics/SVG/1.1/DTD/svg11.dtd">
<svg version="1.1" id="Layer_1" xmlns="http://www.w3.org/2000/svg" xmlns:xlink="http://www.w3.org/1999/xlink" x="0px" y="0px"
	 width="256px" height="256px" viewBox="0 0 256 256" enable-background="new 0 0 256 256" xml:space="preserve">
<circle fill="#414042" cx="128" cy="128" r="128"/>
<g>
	<path fill="#D1D3D4" d="M105.397,102.969c-8.271-8.276-19.272-12.833-30.975-12.833c-1.895,0-3.627,1.071-4.474,2.766
		c-3.85,7.703-5.886,16.325-5.886,24.932c0,6.841-0.426,8.466,1.518,10.357c1.809,1.836,12.797,14.44,32.58,14.44
		c1.895,0,3.627-1.072,4.475-2.766c3.85-7.705,5.885-16.326,5.885-24.933C108.52,105.681,109.101,106.662,105.397,102.969z"/>
	<path fill="#D1D3D4" d="M150.603,102.969c8.272-8.276,19.272-12.833,30.975-12.833c1.895,0,3.627,1.071,4.474,2.766
		c3.851,7.703,5.886,16.325,5.886,24.932c0,6.841,0.427,8.466-1.518,10.357c-1.808,1.836-12.797,14.44-32.579,14.44
		c-1.896,0-3.627-1.072-4.475-2.766c-3.851-7.705-5.886-16.326-5.886-24.933C147.479,105.681,146.899,106.662,150.603,102.969z"/>
	<path fill="#E6E7E8" d="M143.7,87.083L132.07,70.8c-0.938-1.315-2.455-2.095-4.071-2.095c-1.615,0-3.131,0.78-4.07,2.095
		l-11.628,16.281c-10.527,14.734-16.092,32.098-16.092,50.213v13.389c0,17.557,14.233,31.789,31.791,31.789
		c17.558,0,31.791-14.232,31.791-31.789v-13.389C159.79,119.184,154.226,101.82,143.7,87.083z"/>
	<path fill="#FFFFFF" d="M132.07,70.8c-0.938-1.315-2.455-2.095-4.071-2.095v113.767c17.558,0,31.791-14.232,31.791-31.789v-13.389
		c0-18.111-5.564-35.475-16.09-50.213L132.07,70.8z"/>
	<path fill="#E6E7E8" d="M128,207.295c-2.762,0-5.001-2.24-5.001-5.002c0-22.807,8.879-44.242,25.001-60.365
		c16.124-16.124,37.56-25.003,60.362-25.003c2.762,0,5.007,2.24,5.007,5.002c0,22.803-8.88,44.241-25.004,60.364
		C172.239,198.416,150.802,207.295,128,207.295z"/>
	<path fill="#FFFFFF" d="M128,207.295c-22.803,0-44.241-8.879-60.365-25.004c-16.123-16.123-25.003-37.561-25.003-60.364
		c0-2.763,2.24-5.002,5.002-5.002c22.802,0,44.24,8.88,60.364,25.005c16.125,16.123,25.005,37.561,25.005,60.363
		C133.003,205.055,130.763,207.295,128,207.295z"/>
</g>
</svg>
