<?xml version="1.0" encoding="utf-8"?>
<!-- Generator: Adobe Illustrator 16.0.0, SVG Export Plug-In . SVG Version: 6.00 Build 0)  -->
<!DOCTYPE svg PUBLIC "-//W3C//DTD SVG 1.1//EN" "http://www.w3.org/Graphics/SVG/1.1/DTD/svg11.dtd">
<svg version="1.1" id="Layer_1" xmlns="http://www.w3.org/2000/svg" xmlns:xlink="http://www.w3.org/1999/xlink" x="0px" y="0px"
	 width="110px" height="110px" viewBox="0 0 110 110" enable-background="new 0 0 110 110" xml:space="preserve">
<g>
	<path fill="#FFFFFF" d="M84.511,61.376V83.2H71.858V62.84c0-5.113-1.827-8.604-6.408-8.604c-3.496,0-5.573,2.351-6.49,4.627
		c-0.333,0.813-0.419,1.942-0.419,3.084V83.2H45.887c0,0,0.17-34.485,0-38.056h12.654v5.393c-0.025,0.043-0.062,0.084-0.084,0.125
		h0.084v-0.125c1.682-2.588,4.681-6.286,11.403-6.286C78.27,44.251,84.511,49.689,84.511,61.376L84.511,61.376z M32.649,26.8
		c-4.329,0-7.16,2.841-7.16,6.574c0,3.654,2.75,6.577,6.994,6.577h0.082c4.413,0,7.157-2.923,7.157-6.577
		C39.639,29.641,36.979,26.8,32.649,26.8L32.649,26.8z M26.241,83.2h12.649V45.145H26.241V83.2z M26.241,83.2"/>
</g>
</svg>
